<?xml version="1.0" encoding="UTF-8" standalone="no"?>
<svg
   xmlns:dc="http://purl.org/dc/elements/1.1/"
   xmlns:cc="http://creativecommons.org/ns#"
   xmlns:rdf="http://www.w3.org/1999/02/22-rdf-syntax-ns#"
   xmlns:svg="http://www.w3.org/2000/svg"
   xmlns="http://www.w3.org/2000/svg"
   xmlns:sodipodi="http://sodipodi.sourceforge.net/DTD/sodipodi-0.dtd"
   xmlns:inkscape="http://www.inkscape.org/namespaces/inkscape"
   sodipodi:docname="logo-c19.svg"
   inkscape:version="1.0 (4035a4fb49, 2020-05-01)"
   id="svg8"
   version="1.1"
   viewBox="0 0 123 35"
   height="35mm"
   width="123mm">
  <defs
     id="defs2" />
  <sodipodi:namedview
     inkscape:window-maximized="1"
     inkscape:window-y="-8"
     inkscape:window-x="-8"
     inkscape:window-height="1017"
     inkscape:window-width="1920"
     showgrid="false"
     inkscape:document-rotation="0"
     inkscape:current-layer="layer1"
     inkscape:document-units="mm"
     inkscape:cy="244.31123"
     inkscape:cx="427.89731"
     inkscape:zoom="0.71789454"
     inkscape:pageshadow="2"
     inkscape:pageopacity="0.0"
     borderopacity="1.0"
     bordercolor="#666666"
     pagecolor="#ffffff"
     id="base" />
  <metadata
     id="metadata5">
    <rdf:RDF>
      <cc:Work
         rdf:about="">
        <dc:format>image/svg+xml</dc:format>
        <dc:type
           rdf:resource="http://purl.org/dc/dcmitype/StillImage" />
        <dc:title></dc:title>
      </cc:Work>
    </rdf:RDF>
  </metadata>
  <g
     id="layer1"
     inkscape:groupmode="layer"
     inkscape:label="Layer 1">
    <g
       style="stroke-width:1.01471"
       transform="matrix(0.98551878,0,0,0.98549115,-41.554272,-23.55739)"
       inkscape:export-ydpi="96"
       inkscape:export-xdpi="96"
       inkscape:export-filename="C:\Users\HOME 20\Desktop\logo-c19.png"
       id="g1051">
      <text
         inkscape:export-ydpi="96"
         inkscape:export-xdpi="96"
         inkscape:export-filename="C:\Users\HOME 20\Desktop\logo-c19.png"
         xml:space="preserve"
         style="font-style:normal;font-variant:normal;font-weight:bold;font-stretch:normal;font-size:26.4583px;line-height:1.25;font-family:'Nirmala UI';-inkscape-font-specification:'Nirmala UI Bold';fill:#000000;fill-opacity:1;stroke:#000000;stroke-width:0.57331;stroke-miterlimit:4;stroke-dasharray:none;stroke-opacity:1"
         x="42.508194"
         y="44.200512"
         id="text868"><tspan
           sodipodi:role="line"
           id="tspan866"
           x="42.508194"
           y="44.200512"
           style="font-style:normal;font-variant:normal;font-weight:bold;font-stretch:normal;font-size:26.4583px;font-family:'Nirmala UI';-inkscape-font-specification:'Nirmala UI Bold';stroke:#000000;stroke-width:0.57331;stroke-miterlimit:4;stroke-dasharray:none;stroke-opacity:1">C<tspan
   style="opacity:0;fill:#ffffff;fill-opacity:0;stroke:none;stroke-width:0.57331"
   id="tspan876">O</tspan>VID-19</tspan></text>
      <text
         inkscape:export-ydpi="96"
         inkscape:export-xdpi="96"
         inkscape:export-filename="C:\Users\HOME 20\Desktop\logo-c19.png"
         id="text872"
         y="57.092182"
         x="43.080944"
         style="font-style:normal;font-variant:normal;font-weight:300;font-stretch:normal;font-size:28.1951px;line-height:1.25;font-family:'Nirmala UI';-inkscape-font-specification:'Nirmala UI Light';fill:#000000;fill-opacity:1;stroke:#000000;stroke-width:0.268898;stroke-miterlimit:4;stroke-dasharray:none;stroke-opacity:1"
         xml:space="preserve"
         transform="scale(0.99902496,1.000976)"><tspan
           style="font-style:normal;font-variant:normal;font-weight:300;font-stretch:normal;font-size:11.278px;font-family:'Nirmala UI';-inkscape-font-specification:'Nirmala UI Light';stroke:#000000;stroke-width:0.268898;stroke-miterlimit:4;stroke-dasharray:none;stroke-opacity:1"
           y="57.092182"
           x="43.080944"
           id="tspan870"
           sodipodi:role="line">TRACKER CORONAVIRUS</tspan></text>
      <path
         inkscape:export-ydpi="96"
         inkscape:export-xdpi="96"
         inkscape:export-filename="C:\Users\HOME 20\Desktop\logo-c19.png"
         id="path874"
         d="m 63.388373,43.68144 c -0.606678,-0.48408 -0.806648,-0.81497 -0.672472,-1.11273 0.0938,-0.20816 0.518912,-0.30946 1.052661,-0.25087 0.715151,0.0785 1.031527,-0.16283 1.298414,-0.99045 0.320252,-0.99311 0.178796,-1.81755 -0.432756,-2.52223 -0.284323,-0.32762 -0.416404,-0.42124 -0.904908,-0.64136 -0.714259,-0.32185 -1.202435,-0.32576 -2.079611,-0.0167 -0.538812,0.18986 -0.610619,0.23773 -0.719759,0.47994 -0.06668,0.14797 -0.118819,0.46501 -0.115865,0.70453 0.01094,0.88765 -0.368846,1.22446 -0.897702,0.79609 -0.818233,-0.66275 -1.512824,-2.63676 -1.259522,-3.57951 0.05442,-0.20252 0.113648,-0.27338 0.281492,-0.33697 0.25493,-0.0965 0.423416,0.008 0.957078,0.59505 0.43752,0.48111 0.716251,0.55329 1.266198,0.32792 1.189165,-0.48734 1.761361,-1.3033 1.739464,-2.48052 -0.01826,-0.98136 -0.439179,-1.66255 -1.369568,-2.21636 -0.792943,-0.47201 -1.096016,-0.44309 -1.695712,0.16203 -0.348618,0.35175 -0.709004,0.53563 -0.889983,0.45408 -0.196225,-0.0884 -0.321705,-0.59303 -0.263045,-1.05781 0.07868,-0.62332 0.695306,-1.99799 1.105064,-2.46357 0.333263,-0.37864 0.761889,-0.61331 0.958463,-0.52473 0.204077,0.092 0.32766,0.5582 0.272125,1.02664 -0.02893,0.24401 -3.1e-4,0.53936 0.06877,0.70986 0.111484,0.27511 0.148388,0.30479 0.639507,0.51418 1.155536,0.49273 2.119239,0.27441 2.997974,-0.6791 0.620297,-0.67308 0.787139,-1.45755 0.520348,-2.44664 -0.219595,-0.8141 -0.508212,-1.04678 -1.256053,-1.01261 -0.465465,0.0213 -0.911065,-0.12141 -0.984466,-0.31522 -0.06607,-0.17445 0.171499,-0.60635 0.461279,-0.83863 0.963368,-0.7722 2.672512,-1.25598 3.383578,-0.95773 0.490744,0.20578 0.398478,0.60683 -0.262069,1.13926 -0.564198,0.45476 -0.646447,0.91109 -0.282939,1.5698 0.344531,0.62435 0.537386,0.82296 1.069379,1.10132 0.425516,0.22268 0.569768,0.26113 1.076099,0.28909 1.102519,0.0603 1.880801,-0.34334 2.445507,-1.26834 0.444702,-0.72844 0.428401,-1.18393 -0.05649,-1.57853 -0.797929,-0.64935 -0.737053,-1.23318 0.131131,-1.25757 0.86382,-0.0243 2.099652,0.474 2.871024,1.15752 0.853921,0.75668 0.593016,1.26552 -0.603566,1.17714 -0.762235,-0.0563 -1.071207,0.18965 -1.299013,1.03404 -0.246201,0.91258 -0.07476,1.67026 0.540361,2.38808 0.311932,0.36401 0.421024,0.44201 0.957357,0.68447 0.526507,0.23817 0.659559,0.27011 1.022253,0.24665 0.229324,-0.0148 0.644965,-0.10045 0.923655,-0.19023 0.440959,-0.14205 0.529111,-0.2011 0.679452,-0.45513 0.136731,-0.23105 0.168769,-0.38062 0.153303,-0.71756 -0.02061,-0.45119 0.133515,-0.91145 0.330163,-0.98593 0.191093,-0.0724 0.58406,0.15197 0.85987,0.4909 0.904174,1.11103 1.32894,3.19875 0.72866,3.58131 -0.165504,0.10547 -0.225052,0.10155 -0.434159,-0.0286 -0.133277,-0.083 -0.378993,-0.31125 -0.54601,-0.50731 -0.447582,-0.52545 -0.739451,-0.59381 -1.377855,-0.32276 -0.739998,0.31418 -1.119045,0.6711 -1.414331,1.33177 -0.206053,0.46141 -0.239689,0.61731 -0.232214,1.08149 0.0102,0.6334 0.199509,1.1899 0.545499,1.60352 0.279454,0.33409 1.078314,0.85785 1.443477,0.94641 0.326366,0.0792 0.687579,-0.0695 1.003985,-0.41325 0.327871,-0.35618 0.727408,-0.55345 0.933141,-0.46075 0.217504,0.098 0.328555,0.55256 0.262635,1.07499 -0.07613,0.60343 -0.670824,1.92318 -1.072431,2.37995 -0.53051,0.6034 -1.053147,0.70493 -1.212191,0.23549 -0.03847,-0.11352 -0.05599,-0.44509 -0.03895,-0.73678 0.04882,-0.83569 -0.13217,-1.07349 -1.025317,-1.34709 -0.976541,-0.29912 -1.768899,-0.15533 -2.462917,0.44697 -0.333919,0.28979 -0.4188,0.41145 -0.655228,0.93914 -0.235773,0.52591 -0.268278,0.66279 -0.246342,1.03347 0.0139,0.23498 0.118013,0.69174 0.231359,1.01502 0.193068,0.55065 0.22516,0.59621 0.508061,0.72132 0.180409,0.0802 0.467239,0.12795 0.713023,0.11964 0.441822,-0.0149 0.861994,0.12785 0.933743,0.31732 0.08231,0.21735 -0.173959,0.62873 -0.596981,0.95831 -0.490848,0.38243 -1.68004,0.84619 -2.360848,0.92069 -0.27094,0.0296 -0.62577,0.009 -0.798555,-0.0466 -0.275504,-0.0886 -0.31501,-0.1256 -0.346461,-0.32469 -0.04255,-0.26933 0.11107,-0.50399 0.576723,-0.88099 0.247627,-0.20048 0.339671,-0.32709 0.421145,-0.57932 0.09198,-0.28474 0.07717,-0.38398 -0.125598,-0.84228 -0.43274,-0.97805 -1.015395,-1.49294 -1.866004,-1.64898 -1.227996,-0.22525 -2.150587,0.26513 -2.838911,1.50896 -0.41026,0.74136 -0.361029,1.05606 0.253393,1.61971 0.345847,0.31728 0.506172,0.74574 0.350976,0.938 -0.148038,0.18338 -0.664583,0.23948 -1.215279,0.13199 -0.57965,-0.11315 -1.641634,-0.58717 -2.055731,-0.91756 z"
         style="fill:#5142f4;fill-opacity:1;stroke-width:1.01471" />
    </g>
  </g>
</svg>
