<?xml version="1.0" encoding="UTF-8" standalone="no"?>
<svg
   xmlns:dc="http://purl.org/dc/elements/1.1/"
   xmlns:cc="http://creativecommons.org/ns#"
   xmlns:rdf="http://www.w3.org/1999/02/22-rdf-syntax-ns#"
   xmlns:svg="http://www.w3.org/2000/svg"
   xmlns="http://www.w3.org/2000/svg"
   xmlns:sodipodi="http://sodipodi.sourceforge.net/DTD/sodipodi-0.dtd"
   xmlns:inkscape="http://www.inkscape.org/namespaces/inkscape"
   sodipodi:docname="logo-sg-c19.svg"
   inkscape:version="1.0 (4035a4fb49, 2020-05-01)"
   id="svg8"
   version="1.1"
   viewBox="0 0 90 90"
   height="90mm"
   width="90mm">
  <defs
     id="defs2" />
  <sodipodi:namedview
     inkscape:window-maximized="1"
     inkscape:window-y="-8"
     inkscape:window-x="-8"
     inkscape:window-height="1017"
     inkscape:window-width="1920"
     showgrid="false"
     inkscape:document-rotation="0"
     inkscape:current-layer="layer1"
     inkscape:document-units="mm"
     inkscape:cy="244.31123"
     inkscape:cx="427.89731"
     inkscape:zoom="0.71789454"
     inkscape:pageshadow="2"
     inkscape:pageopacity="0.0"
     borderopacity="1.0"
     bordercolor="#666666"
     pagecolor="#ffffff"
     id="base" />
  <metadata
     id="metadata5">
    <rdf:RDF>
      <cc:Work
         rdf:about="">
        <dc:format>image/svg+xml</dc:format>
        <dc:type
           rdf:resource="http://purl.org/dc/dcmitype/StillImage" />
        <dc:title></dc:title>
      </cc:Work>
    </rdf:RDF>
  </metadata>
  <g
     id="layer1"
     inkscape:groupmode="layer"
     inkscape:label="Layer 1">
    <g
       inkscape:export-ydpi="96"
       inkscape:export-xdpi="96"
       inkscape:export-filename="C:\Users\HOME 20\Desktop\logo-sg-c19.png"
       transform="translate(-50.003669,-78.622779)"
       id="g982">
      <path
         style="fill:#5142f2;fill-opacity:1;stroke-width:1"
         d="m 69.234618,159.94087 c -2.445292,-2.33399 -3.185229,-3.84658 -2.488322,-5.08665 0.487155,-0.86683 2.370508,-1.14243 4.663463,-0.68243 3.072258,0.61636 4.537838,-0.30864 6.014792,-3.79623 1.772251,-4.18489 1.476473,-7.81611 -0.904906,-11.10898 -1.107165,-1.53093 -1.644073,-1.98799 -3.678469,-3.13131 -2.974558,-1.67169 -5.090874,-1.87692 -9.015493,-0.8743 -2.410714,0.61587 -2.740698,0.7959 -3.307573,1.80457 -0.346325,0.61625 -0.69477,1.97155 -0.774301,3.01178 -0.294794,3.85514 -2.072285,5.16983 -4.201448,3.10755 -3.294182,-3.19072 -5.546379,-12.02232 -4.083968,-16.0146 0.314147,-0.85759 0.598319,-1.14225 1.351105,-1.35333 1.143181,-0.32056 1.833746,0.19885 3.922646,2.95051 1.712571,2.2559 2.893946,2.67654 5.366681,1.91084 5.346838,-1.65568 8.143815,-4.97496 8.502718,-10.09049 0.2992,-4.26449 -1.264234,-7.38195 -5.086984,-10.14329 -3.258018,-2.35343 -4.584092,-2.34466 -7.41896,0.0491 -1.648042,1.3916 -3.282393,2.05034 -4.036084,1.62677 -0.817191,-0.45925 -1.166987,-2.69678 -0.733288,-4.6905 0.581656,-2.67379 3.786808,-8.399769 5.743959,-10.261569 1.591798,-1.5142 3.541766,-2.366963 4.360408,-1.90689 0.849887,0.477634 1.206256,2.547973 0.784717,4.558785 -0.219583,1.047444 -0.209331,2.339804 0.02464,3.106064 0.377555,1.23651 0.526228,1.37948 2.576087,2.47728 4.82311,2.58304 9.088056,2.00758 13.267914,-1.79017 2.950555,-2.68085 3.976843,-6.0198 3.200792,-10.413617 -0.638762,-3.616457 -1.801162,-4.737175 -5.058679,-4.877281 -2.02751,-0.0872 -3.905645,-0.877992 -4.149344,-1.747088 -0.219361,-0.7823 0.977789,-2.564413 2.324533,-3.460393 4.477097,-2.978544 12.07838,-4.418294 15.04819,-2.85025 2.049531,1.082141 1.494729,2.78625 -1.5762,4.841367 -2.623013,1.755369 -3.15576,3.703297 -1.832763,6.701178 1.253945,2.841412 2.014017,3.777423 4.214628,5.190169 1.760184,1.130022 2.370549,1.353574 4.556961,1.66903 4.75979,0.686748 8.29184,-0.764294 11.09835,-4.559459 2.21011,-2.988676 2.31503,-4.971041 0.36357,-6.869892 -3.21128,-3.124718 -2.72204,-5.634071 1.05378,-5.405111 3.75685,0.227805 8.92613,2.865878 12.00901,6.128642 3.4128,3.611927 2.08471,5.718818 -3.07233,4.874042 -3.2851,-0.538136 -4.72033,0.409729 -6.03419,3.98508 -1.41997,3.864123 -0.96834,7.217243 1.42345,10.568523 1.21289,1.69945 1.6561,2.0799 3.88936,3.33857 2.19212,1.23656 2.75718,1.42617 4.33973,1.46419 1.00059,0.024 2.83676,-0.18708 4.0804,-0.4691 1.9678,-0.44626 2.373,-0.66845 3.12316,-1.71256 0.68229,-0.94962 0.87892,-1.58617 0.94175,-3.05387 0.0845,-1.96529 0.93066,-3.90262 1.81248,-4.1499 0.85693,-0.24029 2.47524,0.88446 3.54113,2.46114 3.49415,5.16862 4.53193,14.38951 1.78023,15.8177 -0.75866,0.39376 -1.01548,0.35379 -1.87248,-0.29137 -0.54625,-0.41127 -1.52418,-1.49639 -2.17311,-2.41138 -1.73918,-2.45207 -2.97901,-2.86121 -5.85309,-1.93149 -3.33146,1.0777 -5.1135,2.47997 -6.64929,5.23229 -1.07216,1.92207 -1.27783,2.58562 -1.42439,4.60226 -0.19994,2.75183 0.40672,5.23903 1.74823,7.16685 1.08355,1.55712 4.34728,4.13738 5.89731,4.66236 1.38539,0.46921 3.0097,-0.0365 4.5149,-1.40565 1.55973,-1.4188 3.36909,-2.12056 4.22587,-1.63905 0.90581,0.50905 1.21233,2.52378 0.72492,4.76482 -0.56296,2.58851 -3.65178,8.08467 -5.57018,9.91142 -2.53415,2.41313 -4.84065,2.65209 -5.34963,0.55423 -0.1231,-0.50737 -0.0713,-1.95249 0.11511,-3.21137 0.53405,-3.60667 -0.15947,-4.70809 -3.92871,-6.23938 -4.12116,-1.67426 -7.6141,-1.35595 -10.85718,0.98943 -1.56036,1.12844 -1.9755,1.62349 -3.20468,3.8216 -1.22542,2.1907 -1.4194,2.77192 -1.46718,4.38848 -0.0303,1.0248 0.24527,3.04649 0.61235,4.49266 0.62526,2.46333 0.7469,2.67335 1.92597,3.32518 0.75256,0.41604 1.97769,0.73525 3.04717,0.79397 1.92251,0.10555 3.69029,0.88699 3.92853,1.73658 0.2733,0.97464 -0.99711,2.66053 -2.95937,3.92723 -2.2769,1.46984 -7.61474,3.02322 -10.59702,3.08389 -1.18685,0.0241 -2.71821,-0.20252 -3.446385,-0.51024 -1.161079,-0.49057 -1.318175,-0.66636 -1.377831,-1.54223 -0.08073,-1.18482 0.676174,-2.14359 2.841666,-3.59957 1.15157,-0.77426 1.5997,-1.28804 2.05043,-2.35087 0.50879,-1.19982 0.48287,-1.63607 -0.22012,-3.7025 -1.50023,-4.40992 -3.829418,-6.86831 -7.459451,-7.8732 -5.240534,-1.45071 -9.432075,0.32096 -12.897811,5.45164 -2.065682,3.05806 -1.973442,4.44229 0.474751,7.12449 1.378058,1.50977 1.908374,3.4304 1.160965,4.2046 -0.712926,0.73851 -2.975492,0.78272 -5.323117,0.10404 -2.471045,-0.71436 -6.895472,-3.18027 -8.564531,-4.77332 z"
         id="path851" />
      <text
         id="text868-0"
         y="132.774"
         x="71.495209"
         style="font-style:normal;font-variant:normal;font-weight:bold;font-stretch:normal;font-size:26.4583px;line-height:1.25;font-family:'Nirmala UI';-inkscape-font-specification:'Nirmala UI Bold';fill:#ffffff;fill-opacity:1;stroke:#fefefe;stroke-width:1.065;stroke-miterlimit:4;stroke-dasharray:none;stroke-opacity:1"
         xml:space="preserve"><tspan
           style="font-style:normal;font-variant:normal;font-weight:bold;font-stretch:normal;font-size:26.4583px;font-family:'Nirmala UI';-inkscape-font-specification:'Nirmala UI Bold';fill:#ffffff;fill-opacity:1;stroke:#fefefe;stroke-width:1.065;stroke-miterlimit:4;stroke-dasharray:none;stroke-opacity:1"
           y="132.774"
           x="71.495209"
           id="tspan866-1"
           sodipodi:role="line">C19</tspan></text>
    </g>
  </g>
</svg>
